{
    "asset" : {
        "generator" : "Khronos glTF Blender I/O v0.9.36",
        "version" : "2.0"
    },
    "scene" : 0,
    "scenes" : [
        {
            "name" : "Scene",
            "nodes" : [
                0
            ]
        }
    ],
    "nodes" : [
        {
            "mesh" : 0,
            "name" : "Frame",
            "translation" : [
                0,
                0,
                -0.17715859413146973
            ]
        }
    ],
    "materials" : [
        {
            "doubleSided" : true,
            "name" : "VertexColor",
            "pbrMetallicRoughness" : {
                "metallicFactor" : 0,
                "roughnessFactor" : 0.5
            }
        }
    ],
    "meshes" : [
        {
            "name" : "Frame",
            "primitives" : [
                {
                    "attributes" : {
                        "POSITION" : 0,
                        "NORMAL" : 1,
                        "TEXCOORD_0" : 2,
                        "COLOR_0" : 3
                    },
                    "indices" : 4,
                    "material" : 0
                }
            ]
        }
    ],
    "accessors" : [
        {
            "bufferView" : 0,
            "componentType" : 5126,
            "count" : 1036,
            "max" : [
                1.5938410758972168,
                2.0911691188812256,
                2.7655115127563477
            ],
            "min" : [
                -1.5938410758972168,
                -0.07571126520633698,
                -3.20774507522583
            ],
            "type" : "VEC3"
        },
        {
            "bufferView" : 1,
            "componentType" : 5126,
            "count" : 1036,
            "type" : "VEC3"
        },
        {
            "bufferView" : 2,
            "componentType" : 5126,
            "count" : 1036,
            "type" : "VEC2"
        },
        {
            "bufferView" : 3,
            "componentType" : 5126,
            "count" : 1036,
            "type" : "VEC4"
        },
        {
            "bufferView" : 4,
            "componentType" : 5123,
            "count" : 1056,
            "type" : "SCALAR"
        }
    ],
    "bufferViews" : [
        {
            "buffer" : 0,
            "byteLength" : 12432,
            "byteOffset" : 0
        },
        {
            "buffer" : 0,
            "byteLength" : 12432,
            "byteOffset" : 12432
        },
        {
            "buffer" : 0,
            "byteLength" : 8288,
            "byteOffset" : 24864
        },
        {
            "buffer" : 0,
            "byteLength" : 16576,
            "byteOffset" : 33152
        },
        {
            "buffer" : 0,
            "byteLength" : 2112,
            "byteOffset" : 49728
        }
    ],
    "buffers" : [
        {
            "byteLength" : 51840,
            "uri" : "data:application/octet-stream;base64,"
        }
    ]
}
